<?xml version="1.0" encoding="UTF-8"?>
<!-- Generated by Pixelmator Pro 3.5.7 -->
<svg width="22" height="22" viewBox="0 0 1024 1024" xmlns="http://www.w3.org/2000/svg">
    <g id="g1">
        <path id="--2" fill="#000000" stroke="none" d="M 634 549 C 634 518.62439 609.375671 494 579 494 C 548.624329 494 524 518.62439 524 549 C 524 579.37561 548.624329 604 579 604 C 609.375671 604 634 579.37561 634 549 Z"/>
        <path id="path1" fill="#000000" stroke="none" d="M 452 860 C 452 829.62439 427.375641 805 397 805 C 366.624359 805 342 829.62439 342 860 C 342 890.37561 366.624359 915 397 915 C 427.375641 915 452 890.37561 452 860 Z"/>
        <path id="--3" fill="#000000" stroke="none" d="M 455 168 C 455 137.624329 430.375641 113 400 113 C 369.624359 113 345 137.624329 345 168 C 345 198.375671 369.624359 223 400 223 C 430.375641 223 455 198.375671 455 168 Z"/>
        <path id="--4" fill="#000000" stroke="none" d="M 566 152 C 566 121.624329 541.375671 97 511 97 C 480.624359 97 456 121.624329 456 152 C 456 182.375671 480.624359 207 511 207 C 541.375671 207 566 182.375671 566 152 Z"/>
        <path id="-" fill="#000000" stroke="none" d="M 205 511 C 205 480.624329 180.375656 456 150 456 C 119.624336 456 95 480.624329 95 511 C 95 541.37561 119.624336 566 150 566 C 180.375656 566 205 541.37561 205 511 Z"/>
    </g>
    <g id="g2">
        <path id="path2" fill="#000000" fill-rule="evenodd" stroke="none" d="M 565 433 C 565 402.624329 540.375671 378 510 378 C 479.624329 378 455 402.624329 455 433 C 455 463.375671 479.624329 488 510 488 C 540.375671 488 565 463.375671 565 433 Z"/>
        <path id="path3" fill="#000000" fill-rule="evenodd" stroke="none" d="M 497 549 C 497 518.624329 472.375671 494 442 494 C 411.624329 494 387 518.624329 387 549 C 387 579.375671 411.624329 604 442 604 C 472.375671 604 497 579.375671 497 549 Z"/>
        <path id="path4" fill="#000000" fill-rule="evenodd" stroke="none" d="M 357 511 C 357 480.624329 332.375671 456 302 456 C 271.624329 456 247 480.624329 247 511 C 247 541.375671 271.624329 566 302 566 C 332.375671 566 357 541.375671 357 511 Z"/>
        <path id="path5" fill="#000000" fill-rule="evenodd" stroke="none" d="M 396 633 C 396 602.624329 371.375671 578 341 578 C 310.624329 578 286 602.624329 286 633 C 286 663.375671 310.624329 688 341 688 C 371.375671 688 396 663.375671 396 633 Z"/>
        <path id="path6" fill="#000000" fill-rule="evenodd" stroke="none" d="M 500 709 C 500 678.624329 475.375671 654 445 654 C 414.624329 654 390 678.624329 390 709 C 390 739.375671 414.624329 764 445 764 C 475.375671 764 500 739.375671 500 709 Z"/>
        <path id="--5" fill="#000000" fill-rule="evenodd" stroke="none" d="M 629 709 C 629 678.624329 604.375671 654 574 654 C 543.624329 654 519 678.624329 519 709 C 519 739.375671 543.624329 764 574 764 C 604.375671 764 629 739.375671 629 709 Z"/>
        <path id="--6" fill="#000000" fill-rule="evenodd" stroke="none" d="M 734 633 C 734 602.624329 709.375671 578 679 578 C 648.624329 578 624 602.624329 624 633 C 624 663.375671 648.624329 688 679 688 C 709.375671 688 734 663.375671 734 633 Z"/>
        <path id="--24" fill="#000000" fill-rule="evenodd" stroke="none" d="M 859 725 C 859 694.624329 834.375671 670 804 670 C 773.624329 670 749 694.624329 749 725 C 749 755.375671 773.624329 780 804 780 C 834.375671 780 859 755.375671 859 725 Z"/>
        <path id="--25" fill="#000000" fill-rule="evenodd" stroke="none" d="M 677 856 C 677 825.624329 652.375671 801 622 801 C 591.624329 801 567 825.624329 567 856 C 567 886.375671 591.624329 911 622 911 C 652.375671 911 677 886.375671 677 856 Z"/>
        <path id="--26" fill="#000000" fill-rule="evenodd" stroke="none" d="M 565 873 C 565 842.624329 540.375671 818 510 818 C 479.624329 818 455 842.624329 455 873 C 455 903.375671 479.624329 928 510 928 C 540.375671 928 565 903.375671 565 873 Z"/>
        <path id="--27" fill="#000000" fill-rule="evenodd" stroke="none" d="M 778 803 C 778 772.624329 753.375671 748 723 748 C 692.624329 748 668 772.624329 668 803 C 668 833.375671 692.624329 858 723 858 C 753.375671 858 778 833.375671 778 803 Z"/>
        <path id="--7" fill="#000000" fill-rule="evenodd" stroke="none" d="M 774 511 C 774 480.624329 749.375671 456 719 456 C 688.624329 456 664 480.624329 664 511 C 664 541.375671 688.624329 566 719 566 C 749.375671 566 774 541.375671 774 511 Z"/>
        <path id="--8" fill="#000000" fill-rule="evenodd" stroke="none" d="M 734 388 C 734 357.624329 709.375671 333 679 333 C 648.624329 333 624 357.624329 624 388 C 624 418.375671 648.624329 443 679 443 C 709.375671 443 734 418.375671 734 388 Z"/>
        <path id="--9" fill="#000000" fill-rule="evenodd" stroke="none" d="M 629 312 C 629 281.624329 604.375671 257 574 257 C 543.624329 257 519 281.624329 519 312 C 519 342.375671 543.624329 367 574 367 C 604.375671 367 629 342.375671 629 312 Z"/>
        <path id="--10" fill="#000000" fill-rule="evenodd" stroke="none" d="M 500 311 C 500 280.624329 475.375671 256 445 256 C 414.624329 256 390 280.624329 390 311 C 390 341.375671 414.624329 366 445 366 C 475.375671 366 500 341.375671 500 311 Z"/>
        <path id="--11" fill="#000000" fill-rule="evenodd" stroke="none" d="M 396 388 C 396 357.624329 371.375671 333 341 333 C 310.624329 333 286 357.624329 286 388 C 286 418.375671 310.624329 443 341 443 C 371.375671 443 396 418.375671 396 388 Z"/>
        <path id="--12" fill="#000000" fill-rule="evenodd" stroke="none" d="M 352 803 C 352 772.624329 327.375671 748 297 748 C 266.624329 748 242 772.624329 242 803 C 242 833.375671 266.624329 858 297 858 C 327.375671 858 352 833.375671 352 803 Z"/>
        <path id="--13" fill="#000000" fill-rule="evenodd" stroke="none" d="M 272 725 C 272 694.624329 247.375671 670 217 670 C 186.624344 670 162 694.624329 162 725 C 162 755.375671 186.624344 780 217 780 C 247.375671 780 272 755.375671 272 725 Z"/>
        <path id="--14" fill="#000000" fill-rule="evenodd" stroke="none" d="M 220 623 C 220 592.624329 195.375671 568 165 568 C 134.624344 568 110 592.624329 110 623 C 110 653.375671 134.624344 678 165 678 C 195.375671 678 220 653.375671 220 623 Z"/>
        <path id="--15" fill="#000000" fill-rule="evenodd" stroke="none" d="M 220 398 C 220 367.624329 195.375671 343 165 343 C 134.624344 343 110 367.624329 110 398 C 110 428.375671 134.624344 453 165 453 C 195.375671 453 220 428.375671 220 398 Z"/>
        <path id="--16" fill="#000000" fill-rule="evenodd" stroke="none" d="M 271 297 C 271 266.624329 246.375671 242 216 242 C 185.624344 242 161 266.624329 161 297 C 161 327.375671 185.624344 352 216 352 C 246.375671 352 271 327.375671 271 297 Z"/>
        <path id="--17" fill="#000000" fill-rule="evenodd" stroke="none" d="M 352 217 C 352 186.624329 327.375671 162 297 162 C 266.624329 162 242 186.624329 242 217 C 242 247.375671 266.624329 272 297 272 C 327.375671 272 352 247.375671 352 217 Z"/>
        <path id="--18" fill="#000000" fill-rule="evenodd" stroke="none" d="M 677 165 C 677 134.624329 652.375671 110 622 110 C 591.624329 110 567 134.624329 567 165 C 567 195.375671 591.624329 220 622 220 C 652.375671 220 677 195.375671 677 165 Z"/>
        <path id="--19" fill="#000000" fill-rule="evenodd" stroke="none" d="M 778 217 C 778 186.624329 753.375671 162 723 162 C 692.624329 162 668 186.624329 668 217 C 668 247.375671 692.624329 272 723 272 C 753.375671 272 778 247.375671 778 217 Z"/>
        <path id="--20" fill="#000000" fill-rule="evenodd" stroke="none" d="M 859 297 C 859 266.624329 834.375671 242 804 242 C 773.624329 242 749 266.624329 749 297 C 749 327.375671 773.624329 352 804 352 C 834.375671 352 859 327.375671 859 297 Z"/>
        <path id="--21" fill="#000000" fill-rule="evenodd" stroke="none" d="M 910 398 C 910 367.624329 885.375671 343 855 343 C 824.624329 343 800 367.624329 800 398 C 800 428.375671 824.624329 453 855 453 C 885.375671 453 910 428.375671 910 398 Z"/>
        <path id="--22" fill="#000000" fill-rule="evenodd" stroke="none" d="M 927 510 C 927 479.624329 902.375671 455 872 455 C 841.624329 455 817 479.624329 817 510 C 817 540.375671 841.624329 565 872 565 C 902.375671 565 927 540.375671 927 510 Z"/>
        <path id="--23" fill="#000000" fill-rule="evenodd" stroke="none" d="M 910 623 C 910 592.624329 885.375671 568 855 568 C 824.624329 568 800 592.624329 800 623 C 800 653.375671 824.624329 678 855 678 C 885.375671 678 910 653.375671 910 623 Z"/>
    </g>
</svg>
